<svg xmlns="http://www.w3.org/2000/svg" viewBox="0 0 24 24">
  <path d="M19 3H5a2 2 0 0 0-2 2v14a2 2 0 0 0 2 2h14a2 2 0 0 0 2-2V5a2 2 0 0 0-2-2m0 16H5V5h14v14m-5.06-8.94a3.37 3.37 0 0 1 0 4.75L11.73 17A3.29 3.29 0 0 1 7 17a3.31 3.31 0 0 1 0-4.74l1.35-1.36-.01.6c-.01.5.07 1 .23 1.44l.05.15-.4.41a1.6 1.6 0 0 0 0 2.28c.61.62 1.67.62 2.28 0l2.2-2.19c.3-.31.48-.72.48-1.15 0-.44-.18-.83-.48-1.14a.87.87 0 0 1 0-1.24.91.91 0 0 1 1.24 0m4.06-.7c0 .9-.35 1.74-1 2.38l-1.34 1.36v-.6c.01-.5-.07-1-.23-1.44l-.05-.14.4-.42a1.6 1.6 0 0 0 0-2.28 1.64 1.64 0 0 0-2.28 0l-2.2 2.2c-.3.3-.48.71-.48 1.14 0 .44.18.83.48 1.14.17.16.26.38.26.62s-.09.46-.26.62a.86.86 0 0 1-.62.25.88.88 0 0 1-.62-.25 3.36 3.36 0 0 1 0-4.75L12.27 7A3.31 3.31 0 0 1 17 7c.65.62 1 1.46 1 2.36Z"/>
</svg>