<svg xmlns="http://www.w3.org/2000/svg" viewBox="0 0 24 24">
  <path d="M22 12c0-5.54-4.46-10-10-10-1.17 0-2.3.19-3.38.56l.7 1.94A7.15 7.15 0 0 1 12 3.97 8.06 8.06 0 0 1 20.03 12 8.06 8.06 0 0 1 12 20.03 8.06 8.06 0 0 1 3.97 12c0-.94.19-1.88.53-2.72l-1.94-.66A10.37 10.37 0 0 0 2 12c0 5.54 4.46 10 10 10s10-4.46 10-10M5.47 3.97c.85 0 1.53.71 1.53 1.5C7 6.32 6.32 7 5.47 7c-.79 0-1.5-.68-1.5-1.53 0-.79.71-1.5 1.5-1.5M18 12c0-3.33-2.67-6-6-6s-6 2.67-6 6 2.67 6 6 6 6-2.67 6-6m-7-3v6H9V9m6 0v6h-2V9"/>
</svg>